<svg width="66" height="45" xmlns="http://www.w3.org/2000/svg"><path d="M60 42.844c-5.094-2.514-15.397-6.751-27-6.751-11.59 0-21.895 4.233-27 6.752V12.031H3v32.408c-.258.15-.392.232-.392.232-1.44.8-2.608.105-2.608-1.543V2.99A3 3 0 013.007 0h59.986A3.002 3.002 0 0166 2.99v40.138c0 1.652-1.16 2.325-2.628 1.533 0 0-.127-.079-.372-.221V12.03h-3v30.814zM3 4.008c0-.553.448-1 .991-1H62.01c.547 0 .991.447.991 1v8.023H3V4.008zm12.5 5.015c.828 0 1.5-.673 1.5-1.504 0-.83-.672-1.504-1.5-1.504S14 6.69 14 7.52s.672 1.504 1.5 1.504zm-4 0c.828 0 1.5-.673 1.5-1.504 0-.83-.672-1.504-1.5-1.504S10 6.69 10 7.52s.672 1.504 1.5 1.504zm-4 0c.828 0 1.5-.673 1.5-1.504 0-.83-.672-1.504-1.5-1.504S6 6.69 6 7.52s.672 1.504 1.5 1.504z" fill="#216bff" fill-rule="evenodd"/></svg>